<?xml version="1.0" encoding="utf-8"?>
<!-- Generator: Adobe Illustrator 16.0.0, SVG Export Plug-In . SVG Version: 6.00 Build 0)  -->
<!DOCTYPE svg PUBLIC "-//W3C//DTD SVG 1.1//EN" "http://www.w3.org/Graphics/SVG/1.1/DTD/svg11.dtd">
<svg version="1.1" id="Layer_1" xmlns="http://www.w3.org/2000/svg" xmlns:xlink="http://www.w3.org/1999/xlink" x="0px" y="0px"
	 width="796.595px" height="172.996px" viewBox="0 0 796.595 172.996" enable-background="new 0 0 796.595 172.996"
	 xml:space="preserve">
<g>
	<defs>
		<rect id="SVGID_1_" width="796.595" height="172.996"/>
	</defs>
	<clipPath id="SVGID_2_">
		<use xlink:href="#SVGID_1_"  overflow="visible"/>
	</clipPath>
	<path clip-path="url(#SVGID_2_)" fill="#03C7BD" d="M0,75.366v97.597h0.001c55.33,0.768,99.005-11.527,131.024-36.888l0.769-0.769
		c0-1.024-0.384-1.537-1.153-1.537l-36.118,0.385c-2.05,0-3.074-1.152-3.074-3.458c0-1.281,0.64-2.178,1.921-2.689l32.66-15.37
		c0.769-0.511,1.153-1.152,1.153-1.921l-1.153-1.537c-1.024-0.769-2.625-1.985-4.803-3.65c-2.177-1.664-7.044-4.481-14.601-8.453
		c-7.556-3.97-15.818-7.428-24.783-10.375c-8.966-2.946-20.814-5.635-35.543-8.069C31.571,76.199,16.138,75.109,0,75.366
		 M70.316,110.331c0-2.049,0.768-3.842,2.305-5.379c1.537-1.537,3.331-2.306,5.38-2.306c2.048,0,3.842,0.769,5.379,2.306
		s2.305,3.33,2.305,5.379c0,2.051-0.768,3.843-2.305,5.38c-1.537,1.536-3.33,2.306-5.379,2.306c-2.049,0-3.843-0.77-5.38-2.306
		C71.084,114.174,70.316,112.382,70.316,110.331"/>
	<path clip-path="url(#SVGID_2_)" fill="#03C7BD" d="M113.35,53.08c0.512,0.512,9.094,8.581,25.744,24.207l19.98,18.828l0.384,0.384
		c3.587,3.074,7.813,4.547,12.68,4.419c4.867-0.128,8.966-1.984,12.296-5.572c3.33-3.586,4.867-7.813,4.611-12.68
		c-0.257-4.867-2.178-8.837-5.764-11.911c-1.281-1.793-3.714-3.201-7.3-4.227l-19.212-6.532l17.675,21.902l0.768-7.301
		c0.769,0.512,1.793,1.025,3.074,1.537c2.049,2.049,3.074,4.483,3.074,7.301c0,2.561-0.896,4.867-2.69,6.917
		c-1.793,2.05-4.098,3.138-6.916,3.266s-5.251-0.832-7.3-2.882L143.32,71.139l-25.359-23.438c0.256-0.513,0.512-1.409,0.768-2.69
		c0-2.305-0.896-4.355-2.689-6.148c-1.794-1.793-3.971-2.689-6.532-2.689l-3.459,1.152C75.567,12.735,46.493,0.312,18.828,0.055
		C13.705-0.201,7.813,0.44,1.153,1.976H0v7.301l1.537-0.384c6.916-1.537,12.552-2.306,16.906-2.306
		c25.616,0.257,53.153,12.424,82.611,36.503c0,0.512-0.128,1.153-0.384,1.921c0,2.562,0.897,4.675,2.69,6.34
		s3.842,2.497,6.148,2.497L113.35,53.08z"/>
	<path clip-path="url(#SVGID_2_)" fill="#FFFFFF" d="M221.736,155.535V65.337h33.178c6.233,0,11.535,0.578,15.912,1.732
		c4.377,1.155,7.944,2.787,10.713,4.891c2.763,2.104,4.776,4.664,6.034,7.678c1.257,3.011,1.886,6.375,1.886,10.09
		c0,2.021-0.284,3.972-0.865,5.849c-0.58,1.881-1.487,3.643-2.726,5.293c-1.233,1.651-2.823,3.147-4.764,4.489
		s-4.274,2.506-6.995,3.497c5.943,1.444,10.338,3.788,13.186,7.028c2.847,3.24,4.274,7.396,4.274,12.473
		c0,3.839-0.744,7.407-2.231,10.709c-1.487,3.304-3.664,6.182-6.529,8.637c-2.872,2.457-6.408,4.377-10.622,5.758
		c-4.208,1.384-9.014,2.074-14.425,2.074H221.736z M242.66,103.285h10.894c2.31,0,4.395-0.166,6.251-0.495
		c1.862-0.33,3.44-0.907,4.74-1.732s2.291-1.962,2.968-3.406c0.684-1.445,1.022-3.259,1.022-5.447c0-2.146-0.266-3.933-0.804-5.357
		c-0.538-1.423-1.36-2.566-2.473-3.433c-1.118-0.868-2.533-1.488-4.244-1.859c-1.71-0.369-3.742-0.557-6.1-0.557H242.66V103.285z
		 M242.66,117.275v22.475h14.733c2.763,0,5.024-0.351,6.777-1.055c1.753-0.702,3.126-1.609,4.117-2.725
		c0.992-1.111,1.675-2.373,2.044-3.774c0.375-1.403,0.556-2.827,0.556-4.272c0-1.649-0.212-3.137-0.647-4.458
		c-0.435-1.317-1.179-2.434-2.231-3.344c-1.052-0.906-2.442-1.608-4.177-2.103c-1.735-0.496-3.924-0.744-6.56-0.744H242.66z"/>
	<rect x="323.387" y="65.338" clip-path="url(#SVGID_2_)" fill="#FFFFFF" width="21.051" height="90.197"/>
	<path clip-path="url(#SVGID_2_)" fill="#FFFFFF" d="M422.185,140.43c2.89,0,5.453-0.248,7.678-0.744
		c2.231-0.495,4.335-1.153,6.318-1.979v-13.682h-8.918c-1.318,0-2.352-0.35-3.095-1.052c-0.744-0.701-1.112-1.59-1.112-2.663
		v-11.514h32.064v38.073c-2.309,1.691-4.715,3.146-7.212,4.363c-2.497,1.22-5.156,2.22-7.985,3.002
		c-2.823,0.783-5.84,1.36-9.038,1.732c-3.199,0.372-6.632,0.559-10.309,0.559c-6.602,0-12.714-1.166-18.323-3.497
		c-5.611-2.334-10.471-5.553-14.576-9.657c-4.111-4.108-7.328-8.979-9.661-14.612c-2.334-5.632-3.495-11.75-3.495-18.354
		c0-6.727,1.113-12.908,3.344-18.542c2.224-5.632,5.417-10.494,9.564-14.58c4.147-4.084,9.159-7.264,15.041-9.534
		c5.883-2.267,12.454-3.404,19.715-3.404c3.76,0,7.285,0.308,10.586,0.928c3.307,0.62,6.348,1.466,9.135,2.539
		c2.787,1.073,5.332,2.352,7.647,3.839c2.31,1.484,4.371,3.096,6.19,4.828l-6.069,9.225c-0.58,0.865-1.27,1.548-2.073,2.041
		c-0.804,0.496-1.681,0.744-2.63,0.744c-1.239,0-2.521-0.411-3.839-1.236c-1.651-0.992-3.21-1.847-4.673-2.57
		c-1.47-0.722-2.964-1.311-4.492-1.765c-1.524-0.453-3.139-0.783-4.825-0.991c-1.692-0.206-3.591-0.309-5.695-0.309
		c-3.923,0-7.454,0.693-10.585,2.074c-3.138,1.384-5.81,3.334-8.022,5.849c-2.207,2.518-3.905,5.541-5.103,9.072
		c-1.197,3.526-1.796,7.456-1.796,11.792c0,4.787,0.659,9.037,1.977,12.753c1.324,3.715,3.15,6.852,5.483,9.409
		c2.328,2.561,5.098,4.511,8.295,5.85C414.894,139.759,418.388,140.43,422.185,140.43"/>
	<polygon clip-path="url(#SVGID_2_)" fill="#03C7BD" points="544.518,65.337 544.518,81.43 507.494,81.43 507.494,104.277 
		538.326,104.277 538.326,120.435 507.494,120.435 507.494,155.534 486.449,155.534 486.449,65.337 	"/>
	<rect x="575.84" y="65.338" clip-path="url(#SVGID_2_)" fill="#03C7BD" width="21.051" height="90.197"/>
	<path clip-path="url(#SVGID_2_)" fill="#03C7BD" d="M682.441,83.662c-0.623,0.988-1.27,1.732-1.952,2.228
		c-0.684,0.496-1.561,0.743-2.63,0.743c-0.949,0-1.971-0.299-3.065-0.897c-1.094-0.599-2.333-1.27-3.712-2.014
		c-1.384-0.743-2.962-1.411-4.739-2.01c-1.771-0.598-3.797-0.897-6.063-0.897c-3.925,0-6.845,0.834-8.761,2.505
		c-1.923,1.672-2.878,3.933-2.878,6.781c0,1.816,0.574,3.322,1.729,4.519c1.154,1.197,2.672,2.228,4.552,3.096
		c1.881,0.865,4.027,1.66,6.439,2.382c2.411,0.722,4.879,1.526,7.399,2.415c2.515,0.889,4.981,1.929,7.395,3.126
		c2.418,1.197,4.563,2.723,6.438,4.582c1.88,1.855,3.398,4.117,4.552,6.777c1.155,2.663,1.736,5.873,1.736,9.628
		c0,4.169-0.726,8.067-2.171,11.7c-1.445,3.632-3.536,6.8-6.281,9.501c-2.745,2.705-6.13,4.83-10.15,6.379
		c-4.026,1.548-8.598,2.321-13.718,2.321c-2.805,0-5.665-0.291-8.572-0.868c-2.908-0.576-5.726-1.393-8.452-2.444
		c-2.721-1.053-5.284-2.302-7.672-3.746c-2.395-1.445-4.479-3.053-6.258-4.827l6.191-9.782c0.453-0.743,1.094-1.342,1.922-1.795
		c0.823-0.454,1.711-0.683,2.661-0.683c1.239,0,2.484,0.392,3.748,1.178c1.257,0.783,2.678,1.651,4.268,2.6
		c1.591,0.949,3.416,1.817,5.478,2.601c2.067,0.783,4.498,1.175,7.309,1.175c3.797,0,6.747-0.834,8.852-2.505
		c2.104-1.672,3.155-4.323,3.155-7.956c0-2.104-0.573-3.818-1.729-5.139c-1.161-1.321-2.672-2.415-4.552-3.28
		c-1.881-0.867-4.016-1.632-6.409-2.291c-2.395-0.659-4.848-1.395-7.363-2.198c-2.521-0.804-4.976-1.795-7.37-2.971
		c-2.394-1.176-4.527-2.725-6.407-4.644c-1.881-1.92-3.393-4.313-4.548-7.182c-1.159-2.869-1.734-6.409-1.734-10.617
		c0-3.385,0.677-6.686,2.044-9.905c1.359-3.22,3.36-6.088,6.003-8.606c2.642-2.515,5.883-4.528,9.721-6.037
		c3.839-1.505,8.235-2.258,13.187-2.258c2.763,0,5.459,0.218,8.076,0.65c2.624,0.432,5.108,1.073,7.461,1.92
		c2.352,0.846,4.552,1.856,6.596,3.032c2.043,1.178,3.869,2.508,5.477,3.993L682.441,83.662z"/>
	<polygon clip-path="url(#SVGID_2_)" fill="#03C7BD" points="796.595,155.535 775.544,155.535 775.544,117.398 738.896,117.398 
		738.896,155.535 717.851,155.535 717.851,65.338 738.896,65.338 738.896,103.038 775.544,103.038 775.544,65.338 796.595,65.338 	
		"/>
</g>
</svg>
